<svg width="934" height="934" viewBox="0 0 934 934" fill="none" xmlns="http://www.w3.org/2000/svg">
<g clip-path="url(#clip0_1_4)">
<path d="M404.383 0.19534C404.117 0.462007 394.65 0.995338 383.183 1.39534C371.717 1.92867 359.05 2.59534 355.183 2.86201C337.317 4.46201 308.117 7.262 301.983 8.19534C300.117 8.46201 295.717 8.99534 292.117 9.52867C286.65 10.1953 272.517 12.5953 251.983 16.1953C245.05 17.5287 212.383 25.9287 203.317 28.862C177.45 37.1287 149.05 50.3286 129.317 63.262C121.984 68.062 115.717 72.3287 115.317 72.7287C114.917 73.1287 110.784 76.862 105.984 80.862C68.7836 112.329 43.5836 154.062 25.5836 214.195C20.6502 230.329 14.7836 256.729 11.8502 275.529C11.4502 278.062 10.9169 281.129 10.6502 282.195C10.3836 283.262 9.7169 287.795 9.3169 292.195C8.78357 296.595 8.25023 301.129 7.98357 302.195C7.7169 303.262 7.05023 308.329 6.5169 313.529C6.1169 318.595 5.45023 323.929 5.18357 325.262C4.9169 326.729 4.38357 333.529 3.98357 340.595C3.45023 347.795 2.9169 355.662 2.65023 358.195C-0.949764 393.529 -0.816431 536.195 2.65023 574.729C2.9169 577.795 3.45023 584.995 3.98357 590.862C5.45023 610.995 6.25023 618.328 9.3169 639.529C9.58357 641.395 10.2502 645.795 10.7836 649.529C11.1836 653.129 11.8502 657.395 12.1169 658.862C13.8502 668.062 15.7169 677.928 16.1169 680.462C21.1836 707.662 33.4502 745.795 44.9169 770.195C81.1835 847.129 142.65 891.528 243.983 914.195C253.45 916.328 257.317 917.128 259.983 917.528C261.45 917.795 266.25 918.728 270.65 919.395C283.717 921.662 287.05 922.195 308.383 924.862C322.383 926.595 329.317 927.262 342.65 928.195C348.517 928.595 355.583 929.128 358.383 929.528C387.317 932.995 556.117 932.995 573.317 929.528C574.783 929.262 581.717 928.595 588.65 928.195C595.583 927.795 603.183 927.262 605.317 926.995C607.583 926.728 613.583 926.062 618.65 925.528C623.85 924.995 629.183 924.328 630.517 924.062C631.983 923.795 636.117 923.262 639.85 922.862C643.583 922.462 647.85 921.795 649.317 921.528C650.783 921.128 654.117 920.595 656.65 920.195C659.183 919.928 662.917 919.262 665.05 918.862C667.05 918.462 669.983 917.928 671.717 917.662C700.25 912.328 745.05 899.395 759.317 892.195C761.183 891.262 768.117 887.928 774.65 884.728C807.85 868.728 835.183 846.995 857.183 818.862C887.85 779.795 907.183 730.329 919.983 658.195C920.117 657.128 920.783 653.262 921.183 649.795C921.717 646.195 922.383 642.328 922.517 641.128C922.783 639.795 923.45 635.262 923.85 630.862C925.85 613.795 926.25 610.728 926.65 607.928C926.917 606.328 927.583 599.128 927.983 591.928C928.517 584.728 929.183 576.462 929.317 573.529C932.917 529.128 932.917 404.329 929.317 356.862C928.917 352.862 928.383 345.395 927.983 340.329C927.583 335.262 927.05 328.595 926.65 325.662C924.383 305.662 923.05 294.462 922.65 291.529C917.85 260.195 912.65 234.995 906.65 214.862C877.85 117.128 825.583 61.5288 733.317 30.462C712.783 23.5286 672.517 13.7953 657.983 12.1953C652.383 11.5287 642.783 10.062 641.983 9.52867C641.583 9.39534 637.183 8.72867 631.983 8.32867C626.917 7.79534 621.183 7.12867 619.317 6.862C617.45 6.59534 611.45 5.92867 605.983 5.52867C600.517 5.12867 593.583 4.46201 590.65 4.19534C587.717 3.92867 579.583 3.26201 572.65 2.86201C565.717 2.462 556.65 1.79534 552.65 1.39534C544.783 0.728671 405.05 -0.471328 404.383 0.19534Z" fill="#38BDF8"/>
<path d="M458.417 274.636C450.522 331.404 444.198 378.007 444.427 378.271C444.656 378.535 448.744 376.027 453.611 372.726C489.103 348.039 548.73 337.477 590.761 348.567C635.499 360.317 655.965 396.622 653.269 459.991C653.09 464.084 615.571 733.139 613.101 748.718L612.445 752.414H484.445L502.479 623.959C512.45 553.461 520.847 492.204 521.159 488.111C523.13 464.744 519.835 451.278 510.71 444.149C506.395 440.716 504.603 440.188 496.87 440.188C467.385 440.32 438.165 473.457 424.323 522.304C423.531 525.077 415.643 578.016 406.886 639.934L390.845 752.414L326.882 752.15L262.938 751.754L302.149 474.513C323.848 322.03 341.642 196.216 341.81 195.028C342.279 192.652 344.277 191.728 352.559 190.671C355.567 190.143 358.975 189.615 360.079 189.351C361.183 189.087 364.877 188.427 368.266 188.031C373.293 187.371 377.653 186.711 383.306 185.391C383.725 185.259 387.399 184.731 391.474 184.203C395.568 183.542 400.194 182.882 401.698 182.618C403.202 182.354 408.133 181.43 412.626 180.77C417.12 180.11 422.05 179.186 423.554 178.922C428.752 177.998 435.853 176.809 440.613 176.149C443.202 175.753 450.037 174.565 455.635 173.641C461.251 172.585 467.496 171.793 469.381 171.661L473 171.529L458.417 274.636Z" fill="#F97316"/>
</g>
<defs>
<clipPath id="clip0_1_4">
<rect width="933.333" height="933.333" fill="white"/>
</clipPath>
</defs>
</svg>
