<?xml version="1.0" standalone="no"?>
<!DOCTYPE svg PUBLIC "-//W3C//DTD SVG 20010904//EN"
 "http://www.w3.org/TR/2001/REC-SVG-20010904/DTD/svg10.dtd">
<svg version="1.0" xmlns="http://www.w3.org/2000/svg"
 width="600.000000pt" height="218.000000pt" viewBox="0 0 600.000000 218.000000"
 preserveAspectRatio="xMidYMid meet">

<g transform="translate(0.000000,218.000000) scale(0.100000,-0.100000)"
fill="#000000" stroke="none">
<path d="M381 538 c-24 -40 -70 -117 -102 -170 l-58 -98 37 0 c35 0 39 4 72
63 l36 62 134 5 c96 4 142 9 158 20 24 15 102 137 102 158 0 24 -52 32 -194
32 l-142 0 -43 -72z m289 3 c0 -25 -44 -81 -63 -82 -158 -3 -197 -3 -197 4 0
4 11 25 25 47 l25 40 105 0 c59 0 105 -4 105 -9z"/>
<path d="M3059 444 c-107 -92 -196 -168 -198 -170 -2 -2 12 -4 32 -4 28 0 46
8 76 35 l38 35 112 0 111 0 0 -35 c0 -34 1 -35 39 -35 l38 0 6 68 c4 37 7 113
7 170 l0 102 -33 0 c-29 0 -61 -23 -228 -166z m183 26 l-4 -70 -74 0 c-41 0
-74 3 -73 8 0 7 140 131 149 132 3 0 4 -31 2 -70z"/>
<path d="M740 413 c-41 -69 -76 -130 -78 -135 -2 -4 10 -8 26 -8 27 0 36 10
110 135 l81 135 -32 0 c-30 0 -36 -7 -107 -127z"/>
<path d="M973 525 c-29 -21 -146 -222 -139 -240 4 -12 31 -15 151 -15 147 0
176 6 202 39 24 31 123 207 123 219 0 19 -309 17 -337 -3z m255 -38 c-2 -7
-23 -47 -48 -90 l-45 -77 -117 0 -118 0 41 68 c23 37 47 77 55 90 14 21 21 22
125 22 85 0 110 -3 107 -13z"/>
<path d="M1406 518 c-25 -39 -123 -203 -135 -226 -11 -20 -9 -22 16 -22 25 0
35 12 81 90 29 50 56 90 60 90 4 0 33 -41 66 -90 81 -125 83 -125 184 45 l81
135 -28 0 c-25 0 -35 -10 -81 -90 -29 -49 -54 -90 -56 -90 -1 0 -31 41 -65 90
-67 97 -94 112 -123 68z"/>
<path d="M1778 407 l-77 -132 145 -3 c131 -2 148 -1 160 15 7 10 14 22 14 26
0 4 -51 7 -112 7 -120 -2 -122 -1 -92 46 15 21 23 24 83 24 55 0 68 3 79 20
12 19 10 20 -53 20 -36 0 -65 3 -65 6 0 3 8 19 17 35 l17 29 118 0 c107 0 118
2 128 20 10 20 8 20 -137 20 l-148 0 -77 -133z"/>
<path d="M2216 518 c-8 -13 -44 -72 -80 -133 l-66 -110 146 -3 c131 -2 148 -1
160 15 7 10 14 22 14 26 0 4 -51 7 -112 7 -120 -2 -122 -1 -92 46 15 21 23 24
83 24 55 0 68 3 79 20 12 19 10 20 -54 20 -36 0 -64 3 -62 8 2 4 10 19 17 35
l14 27 118 0 c108 0 119 2 129 20 10 20 8 20 -134 20 -140 0 -146 -1 -160 -22z"/>
<path d="M2586 518 c-25 -39 -123 -203 -135 -226 -11 -20 -9 -22 17 -22 24 0
35 9 63 53 28 42 40 53 65 55 30 3 34 -1 59 -52 27 -56 28 -56 72 -56 l45 0
-17 28 c-10 15 -24 36 -32 47 -19 29 -17 32 27 33 53 2 72 16 109 77 52 86 53
85 -114 85 -139 0 -145 -1 -159 -22z m234 -29 c0 -6 -9 -24 -21 -40 -20 -29
-22 -29 -115 -29 l-95 0 22 40 23 40 93 0 c61 0 93 -4 93 -11z"/>
<path d="M3841 408 c-70 -118 -77 -133 -60 -136 11 -2 26 -1 33 1 9 4 114 171
163 260 2 4 -9 7 -26 7 -27 0 -36 -10 -110 -132z"/>
<path d="M4043 408 c-145 -122 -155 -133 -129 -136 21 -3 37 5 60 27 31 30 34
31 129 31 l97 0 0 -30 c0 -28 3 -30 35 -30 l35 0 0 135 0 135 -34 0 c-30 0
-57 -19 -193 -132z m162 30 c-4 -29 -8 -54 -9 -55 -1 -2 -106 -5 -119 -4 -10
1 115 111 126 111 5 0 6 -24 2 -52z"/>
<path d="M4432 528 c-22 -22 -13 -27 52 -30 l65 -3 -61 -100 c-77 -129 -76
-125 -41 -125 27 0 35 10 97 115 l68 115 69 0 c58 0 70 3 79 20 11 20 8 20
-153 20 -113 0 -167 -4 -175 -12z"/>
<path d="M4757 411 c-42 -71 -77 -132 -77 -135 0 -3 12 -6 28 -6 24 0 35 14
105 129 42 71 77 132 77 135 0 3 -12 6 -28 6 -24 0 -35 -14 -105 -129z"/>
<path d="M4973 505 c-45 -55 -126 -203 -119 -220 4 -12 31 -15 156 -15 149 0
150 0 179 28 37 34 145 218 136 232 -4 6 -67 10 -165 10 l-159 0 -28 -35z
m277 -11 c0 -4 -21 -44 -47 -90 l-48 -83 -118 -1 -118 0 26 43 c14 23 38 63
53 89 l27 48 113 0 c61 0 112 -3 112 -6z"/>
<path d="M5360 413 c-41 -69 -77 -130 -79 -135 -2 -5 10 -8 25 -6 24 2 36 16
79 90 27 48 55 87 60 88 6 0 36 -41 67 -90 80 -125 83 -124 181 39 42 71 77
132 77 135 0 3 -11 6 -25 6 -20 0 -33 -15 -77 -90 -29 -49 -55 -90 -58 -90 -3
0 -31 41 -64 90 -83 128 -89 127 -186 -37z"/>
</g>
</svg>
