<svg xmlns="http://www.w3.org/2000/svg" xmlns:xlink="http://www.w3.org/1999/xlink" width="642" height="125" viewBox="0 0 134 26"><defs><linearGradient x1="49.69%" y1="-.17%" x2="49.69%" y2="99.95%" id="a"><stop stop-color="#51C0B0" offset="0%"/><stop stop-color="#3ABCA9" offset="15.72%"/><stop stop-color="#00A580" offset="100%"/></linearGradient><path id="b" d="M9.3.15C4.28.15.23 4.23.23 9.3c0 5.06 4.05 9.15 9.07 9.15 3.75 0 6.97-2.35 8.4-5.6.45-1.06.75-2.27.75-3.55 0-1.89-.6-3.63-1.57-5.14C15.15 1.74 12.45.15 9.3.15z"/><linearGradient x1="49.45%" y1="100.29%" x2="49.5%" y2="1.065%" id="c"><stop stop-color="#FFF" stop-opacity="0" offset="0%"/><stop stop-color="#FFF" offset="66.04%"/></linearGradient></defs><g fill="none" fill-rule="evenodd"><g fill="#65666A"><path d="M13.08.92h4.72V10h.08c1.2-1.97 3.3-2.88 5.02-2.88 5.03 0 6.3 2.88 6.3 7.19v10.73h-4.72v-9.83c0-2.87-.83-4.31-3.08-4.31-2.55 0-3.68 1.44-3.68 4.99v9.15H13V.92h.08zM35.8 17.48c.15 3.03 1.58 4.39 4.28 4.39 1.87 0 3.45-1.21 3.75-2.27h4.2c-1.36 4.08-4.2 5.9-8.1 5.9-5.48 0-8.85-3.78-8.85-9.15 0-5.22 3.6-9.23 8.85-9.23 5.85 0 8.7 4.99 8.4 10.36H35.8zm7.73-3.02c-.45-2.42-1.5-3.71-3.75-3.71-3 0-3.9 2.35-3.98 3.71h7.73zM50.13 7.58h4.5v3.25h.07c.9-2.19 3.23-3.71 5.55-3.71.3 0 .75.08 1.05.16v4.46c-.45-.08-1.12-.16-1.72-.16-3.45 0-4.65 2.5-4.65 5.6v7.86H50.2V7.58h-.07zM61.9 12.95c.3-4.47 4.28-5.83 8.1-5.83 3.45 0 7.58.76 7.58 4.99v9.08c0 1.58.14 3.17.6 3.85h-4.8c-.15-.53-.3-1.13-.3-1.66-1.5 1.59-3.68 2.19-5.85 2.19-3.3 0-5.85-1.66-5.85-5.22 0-3.93 2.92-4.91 5.85-5.29 2.92-.45 5.62-.3 5.62-2.27 0-2.04-1.42-2.34-3.07-2.34-1.8 0-3 .76-3.15 2.65H61.9v-.15zm10.95 3.55c-.82.68-2.47.76-3.97.98-1.5.3-2.78.83-2.78 2.57 0 1.82 1.35 2.19 2.93 2.19 3.67 0 3.82-2.94 3.82-4V16.5zM80.28 7.58h4.5V10h.07c1.2-1.97 3.3-2.88 5.25-2.88 5.03 0 6.3 2.88 6.3 7.19v10.73h-4.65v-9.83c0-2.87-.82-4.31-3.07-4.31-2.55 0-3.68 1.44-3.68 4.99v9.15h-4.72V7.58zM121.75 19.37c0 2.12 1.8 2.95 3.68 2.95 1.35 0 3.07-.53 3.07-2.19 0-1.44-1.95-1.97-5.4-2.72-2.77-.61-5.47-1.59-5.47-4.62 0-4.46 3.82-5.59 7.5-5.59 3.75 0 7.27 1.28 7.65 5.59h-4.5c-.15-1.89-1.58-2.34-3.23-2.34-1.05 0-2.62.23-2.62 1.59 0 1.74 2.7 1.96 5.4 2.57 2.77.6 5.47 1.66 5.47 4.91 0 4.62-3.97 6.05-7.87 6.05-3.98 0-7.95-1.51-8.1-6.12h4.42v-.08z"/></g><path d="M3.63 2.36v5.22H.7v3.25h2.93v14.21h4.72V10.83h3.45V7.58H8.35V2.36H3.63z" fill="#65666A"/><path d="M107.05 7.2c-5.02 0-9.07 4.08-9.07 9.15 0 5.06 4.05 9.15 9.07 9.15 3.75 0 6.98-2.35 8.4-5.6.45-1.06.75-2.27.75-3.55 0-1.89-.6-3.63-1.57-5.14-1.73-2.42-4.43-4.01-7.58-4.01z" fill="url(#a)"/><g transform="translate(97.75 7.05)"><mask id="d" fill="#fff"><use xlink:href="#b"/></mask><path fill="url(#c)" mask="url(#d)" d="M0-18.15h19.2v31.53H0z"/></g></g></svg>